<svg xmlns="http://www.w3.org/2000/svg" width="1312" height="1844" viewBox="0 0 1312 1844" version="1.1">
	<path d="M 617.500 48.073 C 610.900 48.388, 604.546 49.160, 603.380 49.789 C 602.213 50.417, 599.513 51.369, 597.380 51.904 C 590.730 53.569, 565.617 63.403, 563.238 65.273 C 562.544 65.818, 560.670 66.993, 559.074 67.882 C 551.459 72.127, 546.083 75.499, 538.557 80.750 C 535.996 82.537, 533.693 84, 533.440 84 C 531.556 84, 517.173 95.422, 502 108.968 C 490.489 119.244, 488.878 120.899, 482.500 129.001 C 470.132 144.712, 463.633 156.068, 464.205 160.970 C 464.451 163.076, 464.960 163.452, 467.246 163.213 C 468.757 163.055, 470.816 163.366, 471.823 163.905 C 473.601 164.857, 478.315 163.044, 486 158.453 C 487.508 157.552, 489.734 157.174, 491.612 157.499 C 493.707 157.863, 495.135 157.543, 495.984 156.519 C 496.677 155.684, 498.427 154.993, 499.872 154.985 C 501.318 154.976, 503.118 154.578, 503.874 154.099 C 505.800 152.879, 512.106 157.347, 513.654 161.029 C 514.333 162.643, 516.488 165.368, 518.444 167.085 C 520.574 168.955, 522 171.125, 522 172.497 C 522 173.756, 522.675 175.045, 523.500 175.362 C 526.975 176.695, 523.560 180.911, 518.958 180.968 C 515.593 181.010, 507.652 188.929, 508.571 191.324 C 508.925 192.246, 509.899 193, 510.736 193 C 511.984 193, 512.138 193.900, 511.593 198.012 C 511.227 200.769, 510.685 203.658, 510.387 204.433 C 510.038 205.343, 510.642 205.957, 512.098 206.170 C 513.349 206.354, 515.085 207.832, 516.006 209.500 C 517.438 212.093, 518.804 212.794, 526.081 214.666 C 530.712 215.857, 535.572 216.869, 536.882 216.916 C 542.504 217.115, 550.209 225.017, 546.822 227.110 C 546.132 227.537, 545.009 227.423, 544.327 226.857 C 541.521 224.527, 539.816 229.131, 542.119 232.819 C 542.999 234.228, 542.780 235.511, 541.099 238.806 C 539.922 241.113, 538.279 243, 537.448 243 C 536.617 243, 535.678 243.675, 535.362 244.500 C 534.943 245.591, 533.229 246, 529.077 246 C 520.077 246, 511.981 247.915, 505.888 251.486 C 502.797 253.298, 499.195 255.108, 497.884 255.509 C 488.581 258.355, 478 265.118, 478 268.218 C 478 271.809, 481.130 276.879, 484.618 278.937 C 488.877 281.450, 490.313 284.698, 488.461 287.626 C 487.412 289.285, 487.329 291.256, 488.083 296.581 C 489.163 304.211, 488.095 314.675, 485.486 322 C 484.605 324.475, 483.708 329.200, 483.492 332.500 C 483.106 338.398, 482.180 343.584, 480.099 351.500 C 479.521 353.700, 479.037 359.647, 479.024 364.716 C 479.007 371.140, 478.505 374.971, 477.365 377.361 C 475.200 381.901, 476.158 386, 479.384 386 C 480.675 386, 482.811 386.850, 484.132 387.889 C 487.539 390.569, 493.785 393.020, 495.516 392.356 C 496.322 392.046, 499.237 392.604, 501.993 393.595 C 505.886 394.994, 507.271 395.129, 508.202 394.198 C 508.861 393.539, 510.172 393, 511.115 393 C 512.873 393, 515.778 390.892, 521.658 385.350 C 524.400 382.766, 525 381.458, 525 378.068 C 525 375.795, 524.389 372.472, 523.641 370.684 C 522.341 367.571, 514.240 355.136, 511.470 352 C 509.192 349.422, 504.213 338.650, 503.471 334.697 C 502.545 329.763, 504.616 322.257, 507.122 321.461 C 509.420 320.732, 509.474 319.225, 507.392 314.021 C 505.452 309.172, 506.188 305, 508.984 305 C 510.054 305, 511.397 305.873, 511.967 306.939 C 512.648 308.211, 514.552 309.110, 517.503 309.553 C 519.976 309.924, 522 310.626, 522 311.114 C 522 312.833, 527.573 311.979, 529.268 310 C 530.965 308.018, 534.368 307.437, 537.418 308.607 C 540.037 309.612, 539.212 310.870, 535.473 311.571 C 533.533 311.935, 531.492 313.080, 530.938 314.116 C 529.598 316.619, 523.513 316.711, 522.080 314.250 C 521.207 312.752, 521.056 312.893, 521.030 315.231 C 520.990 318.833, 522.929 319.265, 537.169 318.828 C 547.883 318.499, 548.772 318.308, 553.500 315.316 C 556.250 313.576, 559.850 311.851, 561.500 311.483 C 563.150 311.115, 565.291 310.600, 566.257 310.338 C 567.223 310.075, 568.887 307.980, 569.956 305.680 C 571.024 303.381, 573.046 300.193, 574.449 298.594 C 575.852 296.996, 577 295.124, 577 294.433 C 577 293.600, 579.103 293.050, 583.250 292.799 C 588.839 292.460, 589.788 292.689, 592.222 294.960 C 595.294 297.826, 595.612 299.245, 593.630 301.227 C 590.517 304.340, 589.015 308.829, 589.617 313.220 C 590.072 316.542, 589.830 317.896, 588.598 318.919 C 587.709 319.656, 586.702 322.011, 586.360 324.152 C 586.017 326.293, 585.346 328.286, 584.869 328.581 C 584.391 328.876, 584 330.346, 584 331.848 C 584 333.349, 583.091 336.360, 581.980 338.539 C 580.869 340.717, 579.499 345.425, 578.936 349 C 578.373 352.575, 577.270 357.750, 576.484 360.500 C 575.699 363.250, 574.793 367.627, 574.470 370.227 C 574.148 372.826, 573.460 375.215, 572.942 375.536 C 572.424 375.856, 571.997 376.879, 571.994 377.809 C 571.990 378.739, 571.258 380.850, 570.366 382.500 C 568.249 386.414, 568.578 393.253, 571.123 398.242 C 573.623 403.141, 573.693 405.775, 571.543 413.940 C 568.815 424.299, 563.329 433, 559.525 433 C 556.705 433, 549 440.983, 549 443.905 C 549 445.363, 548.071 447.351, 546.936 448.323 C 543.348 451.395, 544.784 454.154, 551.713 457.500 C 555.129 459.150, 558.178 461.129, 558.488 461.897 C 558.797 462.665, 557.689 465.909, 556.025 469.106 C 553.643 473.682, 553 476.190, 553 480.900 C 553 484.481, 553.483 487.180, 554.202 487.625 C 554.864 488.034, 557.901 488.477, 560.952 488.609 C 564.004 488.741, 566.634 488.884, 566.798 488.925 C 566.962 488.966, 565.498 490.645, 563.545 492.657 C 555.509 500.931, 552.837 513.754, 554.928 534 C 556.147 545.804, 557.224 549.554, 560.991 555.113 C 562.626 557.526, 563.978 560.175, 563.995 561 C 564.012 561.825, 566.698 565.643, 569.963 569.483 C 573.229 573.324, 576.177 577.599, 576.515 578.983 C 577.561 583.263, 584.074 595.729, 589.846 604.500 C 594.315 611.290, 614.833 636.724, 617.594 638.895 C 626.464 645.873, 644.613 663.480, 647.762 668.164 C 648.626 669.449, 651.845 673.215, 654.916 676.533 C 662.795 685.047, 666.066 688.995, 669.447 694.073 C 674.388 701.494, 677.147 704.123, 678.670 702.859 C 679.401 702.252, 680 701.019, 680 700.120 C 680 698.528, 684.649 689.001, 685.914 688 C 687.156 687.017, 692.735 677.897, 694.854 673.386 C 695.400 672.224, 696.556 671.001, 697.423 670.668 C 698.291 670.335, 699 669.218, 699 668.186 C 699 667.154, 699.900 665.495, 701 664.500 C 702.100 663.505, 703 661.860, 703 660.845 C 703 659.830, 703.675 659, 704.500 659 C 706.172 659, 706.564 655.467, 705 654.500 C 703.285 653.440, 703.835 647.204, 705.750 645.989 C 707.233 645.048, 707.080 644.943, 704.750 645.300 C 702.407 645.660, 702 645.373, 702 643.361 C 702 641.929, 701.410 641, 700.500 641 C 698.005 641, 698.765 637.064, 701.500 635.818 C 702.875 635.192, 704 634.113, 704 633.421 C 704 632.730, 704.235 631.550, 704.523 630.801 C 705.047 629.436, 698.149 625.518, 697.089 626.578 C 696.806 626.861, 696.678 629.558, 696.804 632.571 C 697.059 638.684, 695.719 640.104, 691.504 638.184 C 689.586 637.310, 688.668 637.473, 686.672 639.044 C 682.383 642.417, 674.897 645.136, 671.782 644.452 C 670.207 644.106, 668.335 644.307, 667.621 644.899 C 666.673 645.687, 665.221 645.442, 662.211 643.988 C 659.948 642.894, 657.512 641.996, 656.798 641.990 C 654.184 641.971, 645.359 637.210, 640.495 633.197 C 637.748 630.930, 633.984 627.842, 632.131 626.335 C 630.278 624.828, 626.245 620.424, 623.168 616.548 C 615.696 607.134, 607.983 599, 606.529 599 C 605.880 599, 604.258 597.831, 602.924 596.401 C 601.591 594.972, 598.025 592.055, 595 589.918 C 591.975 587.782, 588.600 584.638, 587.500 582.932 C 586.400 581.226, 584.451 579.415, 583.169 578.909 C 579.853 577.599, 580.906 575.896, 585.955 574.405 C 588.349 573.698, 590.682 572.531, 591.139 571.810 C 593.062 568.777, 592.004 555.557, 589.006 545.162 C 584.619 529.954, 582.486 503.241, 585.265 498.306 C 585.944 497.099, 587.556 494.174, 588.847 491.806 C 592.095 485.845, 593.728 484.219, 597.242 483.447 C 598.910 483.080, 603.082 481.318, 606.511 479.531 C 616.454 474.348, 617.286 474.322, 623.816 478.998 C 634.451 486.613, 637.495 488.479, 647.473 493.508 C 655.418 497.511, 658.009 499.371, 660.214 502.654 C 661.995 505.306, 664.411 507.347, 666.991 508.380 C 669.196 509.262, 671 510.384, 671 510.872 C 671 511.361, 674.038 514.112, 677.750 516.986 C 684.364 522.105, 684.608 522.199, 689.857 521.666 C 694.572 521.188, 695.500 521.409, 697.607 523.516 C 698.923 524.832, 700 526.589, 700 527.421 C 700 528.252, 700.638 530.410, 701.419 532.216 C 702.199 534.022, 703.614 539.042, 704.564 543.371 C 706.043 550.114, 706.130 552.551, 705.166 560.371 C 704.548 565.392, 703.283 571.428, 702.356 573.785 C 701.337 576.372, 701.032 578.428, 701.585 578.974 C 702.893 580.266, 715.501 573.904, 718.048 570.666 C 720.845 567.111, 722.678 567.304, 723.600 571.250 C 724.684 575.891, 724.175 579.083, 721.832 582.353 C 720.281 584.518, 719.808 586.663, 719.873 591.249 C 719.920 594.572, 720.155 597.488, 720.396 597.729 C 720.636 597.970, 722.888 598.167, 725.400 598.167 C 728.580 598.167, 731.048 598.900, 733.528 600.583 C 736.351 602.499, 738.380 603, 743.322 603 C 748.811 603, 749.909 602.660, 752.527 600.151 C 756.368 596.469, 763 589.151, 763 588.594 C 763 587.819, 771.139 579.671, 774.862 576.718 C 778.637 573.726, 787 562.529, 787 560.468 C 787 559.431, 788.724 557.150, 793.400 552 C 794.149 551.175, 795.069 549.069, 795.445 547.319 C 795.821 545.570, 796.775 543.602, 797.564 542.947 C 798.354 542.291, 799 541.291, 799 540.724 C 799 539.147, 804.043 528.797, 806.087 526.180 C 807.083 524.903, 808.198 521.863, 808.564 519.423 C 808.955 516.817, 810.419 513.489, 812.115 511.356 C 813.702 509.359, 815.031 507.449, 815.068 507.112 C 816.046 498.293, 814.149 487.852, 810.951 484.448 C 808.416 481.749, 808.490 481, 811.292 481 C 813.616 481, 823 488.645, 823 490.539 C 823 491.098, 823.788 492.287, 824.750 493.181 C 825.712 494.074, 827.526 496.312, 828.781 498.153 C 838.420 512.297, 847.681 522.645, 856.390 529 C 859.028 530.925, 863.492 534.688, 866.309 537.363 C 869.127 540.037, 874.059 543.932, 877.270 546.018 C 882.530 549.436, 893 559.986, 893 561.868 C 893 563.192, 909.062 578.885, 911.068 579.522 C 912.131 579.859, 913 580.566, 913 581.092 C 913 582.628, 917.746 584.001, 920.886 583.373 C 925.211 582.508, 926.354 579.107, 923.974 574.182 C 921.687 569.448, 911.621 560.308, 907.750 559.451 C 903.838 558.584, 904.343 557, 908.531 557 C 910.474 557, 912.282 556.430, 912.549 555.732 C 913.124 554.234, 910.824 539.718, 906.887 520 C 905.600 513.552, 903.277 496.656, 902.694 489.500 C 902.239 483.916, 899.981 471.100, 897.587 460.519 C 896.719 456.680, 895.745 449.255, 895.423 444.019 C 895.102 438.784, 894.387 433.304, 893.836 431.841 C 893.160 430.049, 893.202 422.067, 893.965 407.341 C 894.588 395.329, 895.515 373.125, 896.026 358 C 896.537 342.875, 897.444 328.475, 898.042 326 C 899.903 318.302, 899.408 295.698, 897.160 285.712 C 896.071 280.878, 894.655 276.289, 894.012 275.514 C 893.369 274.739, 892.920 272.169, 893.014 269.803 C 893.260 263.629, 893.143 263, 891.750 262.999 C 890.884 262.999, 890.465 260.908, 890.385 256.187 C 890.278 249.792, 888.953 245.318, 886.738 243.872 C 886.209 243.526, 885.358 241.276, 884.847 238.872 C 883.775 233.827, 883.765 233.519, 884.563 229.482 C 885.041 227.059, 884.598 225.874, 882.317 223.482 C 880.753 221.842, 877.455 216.762, 874.987 212.193 C 868.064 199.377, 867.737 198.823, 863.090 192.015 C 857.976 184.522, 858.162 184.768, 853.286 179.093 C 848.331 173.325, 842.019 167.118, 834.019 160.147 C 830.455 157.041, 826.658 153.713, 825.581 152.750 C 824.504 151.787, 823.192 151, 822.664 151 C 822.137 151, 819.790 149.430, 817.449 147.512 C 815.108 145.593, 812.024 143.579, 810.596 143.037 C 809.168 142.494, 808 141.654, 808 141.170 C 808 139.931, 797.615 132.965, 790.690 129.559 C 785.027 126.773, 784.589 126.716, 773.461 127.312 C 762.043 127.924, 762.043 127.924, 758.436 120.712 C 756.451 116.745, 752.954 111.053, 750.664 108.062 C 744.436 99.928, 731.972 87.539, 728 85.533 C 726.075 84.561, 723.600 82.977, 722.500 82.012 C 717.839 77.923, 709.857 73.069, 700.500 68.631 C 695 66.023, 688.836 63.014, 686.802 61.944 C 684.768 60.875, 682.518 59.997, 681.802 59.994 C 681.086 59.990, 679.150 59.276, 677.500 58.406 C 672.882 55.972, 661.979 52, 659.916 52 C 658.901 52, 655.939 51.276, 653.334 50.392 C 647.175 48.301, 632.549 47.354, 617.500 48.073 M 527 260.956 C 521.464 261.691, 515.709 264.044, 514.445 266.089 C 514.070 266.696, 514.437 267.865, 515.260 268.688 C 517.504 270.932, 531.290 268.628, 535.835 265.249 C 540.939 261.453, 537.144 259.609, 527 260.956 M 744.682 262.652 C 743.824 263.510, 743.811 268.902, 744.649 276.920 C 745.535 285.389, 746.969 282.656, 746.969 272.500 C 746.969 264.821, 746.129 261.204, 744.682 262.652 M 440.424 267.446 C 440.064 268.880, 440.396 270.727, 441.226 271.913 C 443.193 274.721, 449.989 280, 451.638 280 C 452.387 280, 453 280.398, 453 280.883 C 453 281.369, 454.125 281.982, 455.500 282.245 C 456.875 282.508, 458 282.645, 458 282.549 C 458 282.454, 457.106 280.524, 456.012 278.261 C 454.884 275.926, 452.241 272.927, 449.898 271.324 C 447.628 269.771, 444.922 267.712, 443.885 266.750 C 441.435 264.475, 441.156 264.531, 440.424 267.446 M 521 272.421 C 521 273.202, 519.654 274.137, 518.009 274.498 C 514.039 275.370, 509.293 281.282, 508.450 286.402 C 508.080 288.656, 507.146 292.032, 506.375 293.904 C 505.604 295.775, 505.230 297.563, 505.542 297.876 C 505.855 298.188, 509.966 298.385, 514.678 298.313 C 525.106 298.154, 525.918 297.518, 527.425 288.328 C 528.325 282.843, 528.984 281.318, 530.854 280.386 C 534.739 278.449, 535.303 277.438, 533.943 274.857 C 532.190 271.530, 531.128 271.033, 525.750 271.015 C 522.305 271.004, 521 271.390, 521 272.421 M 459.135 306.964 C 457.284 307.421, 454.575 308.678, 453.115 309.757 C 451.656 310.836, 449.458 312.037, 448.231 312.427 C 444.838 313.504, 445.509 314.529, 451.133 316.867 C 457.229 319.400, 458.356 319.480, 460 317.500 C 460.685 316.675, 462.717 316, 464.515 316 C 467.969 316, 469 317.283, 469 321.582 C 469 324.302, 470.174 324.700, 471.937 322.576 C 472.679 321.681, 472.867 319.807, 472.441 317.536 C 471.929 314.809, 472.190 313.447, 473.502 311.997 C 475.864 309.388, 474.743 307, 471.156 307 C 469.558 307, 466.956 306.805, 465.375 306.567 C 463.794 306.329, 460.986 306.507, 459.135 306.964 M 502.557 412.743 C 496.330 413.225, 492.246 416.821, 494.262 420.047 C 494.940 421.134, 496.211 422.249, 497.085 422.527 C 497.960 422.805, 500.130 424.330, 501.907 425.917 C 504.833 428.529, 505.798 428.797, 512.074 428.740 C 519.835 428.668, 521.011 429.194, 518.795 431.744 C 517.955 432.710, 516.962 434.850, 516.587 436.500 C 516.212 438.150, 515.690 440.228, 515.427 441.117 C 515.158 442.028, 516.229 444.104, 517.876 445.867 C 521.079 449.296, 525.419 449.977, 530.685 447.878 C 532.233 447.261, 535.638 446.833, 538.250 446.927 C 543 447.099, 543 447.099, 543 443.672 C 543 440.343, 541.177 435.206, 538.807 431.856 C 537.888 430.558, 537.996 429.861, 539.322 428.535 C 541.290 426.568, 541.547 421.642, 539.750 420.337 C 539.063 419.838, 535.350 418.444, 531.500 417.241 C 512.969 411.448, 515.070 411.775, 502.557 412.743 M 828.546 556.926 C 828.231 557.435, 828.700 559.991, 829.587 562.606 C 830.868 566.377, 830.977 568.098, 830.115 570.930 C 828.190 577.253, 828.325 578.334, 831.213 579.747 C 832.706 580.477, 835.596 583.111, 837.636 585.601 C 839.676 588.090, 842.730 590.839, 844.423 591.709 C 846.115 592.579, 849.065 594.576, 850.978 596.146 C 852.891 597.716, 855.013 599, 855.693 599 C 858.003 599, 866.392 604.992, 868.299 608.003 C 869.873 610.490, 870.856 611, 874.068 611 C 877.211 611, 878.358 611.565, 880.158 614 C 882.783 617.550, 885.040 617.756, 889.706 614.873 C 892.484 613.156, 893.600 612.952, 895.496 613.816 C 897.518 614.738, 898.075 614.535, 899.503 612.355 C 900.790 610.391, 901.709 609.961, 903.603 610.436 C 905.410 610.890, 906.187 610.588, 906.594 609.275 C 906.897 608.299, 907.565 606.825, 908.079 606 C 910.156 602.665, 910.124 601.849, 907.792 598.740 C 906.456 596.958, 903.835 592.800, 901.967 589.500 C 897.606 581.796, 894.618 579.131, 883 572.584 C 861.310 560.360, 849.281 556.046, 836.809 556.018 C 832.579 556.008, 828.861 556.417, 828.546 556.926 M 648.250 568.662 C 647.563 568.940, 647 570.040, 647 571.108 C 647 572.306, 645.947 573.450, 644.252 574.094 C 639.018 576.084, 638 577.800, 638 584.629 C 638 590.616, 638.155 591.029, 640.950 592.474 C 645.142 594.642, 659.736 594.573, 662.880 592.371 C 665.052 590.850, 665.159 590.311, 664.505 584.198 C 663.658 576.289, 661.272 572.656, 655.145 569.946 C 650.527 567.903, 650.256 567.853, 648.250 568.662 M 933.250 572.689 C 931.461 573.047, 931 573.817, 931 576.447 C 931 578.267, 931.675 580.315, 932.500 581 C 933.325 581.685, 934 582.795, 934 583.467 C 934 585.239, 937.373 588.022, 938.523 587.199 C 939.060 586.815, 939.500 583.350, 939.500 579.500 C 939.500 571.960, 939.095 571.518, 933.250 572.689 M 716.457 609.070 C 716.034 609.754, 715.718 612.268, 715.754 614.657 C 715.801 617.758, 715.416 619, 714.410 619 C 713.634 619, 712.844 618.888, 712.654 618.750 C 711.486 617.907, 709.286 621.489, 709.492 623.901 C 709.842 628.019, 710.619 628.827, 714.005 628.593 C 718.771 628.263, 719.516 626.769, 719.357 617.854 C 719.217 609.989, 718.058 606.479, 716.457 609.070 M 707.500 633 C 707.151 634.100, 706.189 635, 705.363 635 C 704.377 635, 703.971 635.773, 704.180 637.250 C 704.430 639.009, 705.046 639.428, 707 639.172 C 708.375 638.991, 710.175 638.044, 711 637.067 C 711.825 636.090, 713.400 634.968, 714.500 634.574 C 716.475 633.866, 716.476 633.839, 714.559 632.429 C 711.734 630.350, 708.252 630.631, 707.500 633 M 918.163 632.198 C 915.829 632.831, 915.002 633.538, 915.413 634.551 C 915.736 635.348, 916.253 636.621, 916.561 637.381 C 917.268 639.119, 912.200 641, 906.813 641 C 903.213 641, 902.946 641.194, 903.212 643.615 C 903.471 645.970, 902.799 646.810, 899.158 648.675 C 898.970 648.771, 899.401 650.466, 900.115 652.441 C 901.239 655.551, 901.188 656.412, 899.729 658.881 C 898.147 661.561, 898.149 661.820, 899.773 663.214 C 900.723 664.029, 902.288 664.975, 903.250 665.317 C 904.278 665.681, 905 666.958, 905 668.412 C 905 669.792, 905.929 671.537, 907.099 672.357 C 909.866 674.295, 914.729 672.690, 916.257 669.335 C 917.170 667.332, 917.846 667.027, 920.219 667.548 C 922.088 667.959, 923.942 667.613, 925.561 666.552 C 927.956 664.983, 928.018 664.661, 927.388 657.104 C 926.653 648.293, 927.496 646.785, 931.639 649.499 C 934.076 651.096, 934.297 651.070, 936.595 648.911 C 939.725 645.971, 939.637 645.359, 935.750 642.989 C 931.249 640.244, 929.311 640.497, 927.463 644.071 C 926.235 646.447, 925.575 646.893, 924.549 646.041 C 923.729 645.360, 921.559 645.199, 918.862 645.618 C 914.575 646.284, 914.530 646.262, 916.250 644.319 C 917.212 643.232, 918 641.129, 918 639.647 C 918 637.720, 918.686 636.690, 920.403 636.037 C 925.746 634.005, 923.800 630.671, 918.163 632.198 M 908.320 646.738 C 907.507 649.334, 907.467 650.857, 908.188 651.727 C 909.621 653.453, 911 652.360, 911 649.500 C 911 648.190, 911.472 646.826, 912.049 646.470 C 912.765 646.027, 912.727 645.376, 911.926 644.411 C 910.163 642.286, 909.599 642.650, 908.320 646.738 M 499 649.034 C 497.702 649.903, 497.762 650.238, 499.446 651.523 C 501.665 653.215, 503.610 652.033, 502.664 649.567 C 501.969 647.756, 501.099 647.630, 499 649.034 M 491.607 654.582 C 490.580 657.259, 490.907 658.014, 493.526 659.010 C 494.915 659.538, 496.313 660.653, 496.633 661.487 C 497.595 663.994, 496.156 667.726, 494.011 668.287 C 491.825 668.859, 491.455 670.640, 493.033 673 C 494.604 675.350, 499 669.844, 499 665.526 C 499 662.738, 499.621 661.779, 502.635 659.917 C 506.022 657.823, 506.145 657.580, 504.444 656.335 C 503.439 655.601, 501.380 655, 499.868 655 C 498.355 655, 496.840 654.550, 496.500 654 C 495.535 652.439, 492.281 652.826, 491.607 654.582 M 993 802.521 C 993 804.253, 993.798 805.406, 995.546 806.203 C 997.785 807.223, 998.411 807.043, 1000.743 804.712 C 1003.712 801.743, 1003.062 799.855, 999.778 801.907 C 997.955 803.045, 997.476 803.003, 996.463 801.619 C 994.704 799.214, 993 799.658, 993 802.521 M 634.250 816.662 C 632.047 817.551, 632.875 820, 635.378 820 C 638.475 820, 640.742 817.499, 638.444 816.617 C 636.647 815.927, 636.055 815.934, 634.250 816.662 M 632.250 824.723 C 629.841 825.022, 629 825.628, 629 827.063 C 629 829.115, 630.467 829.671, 631.494 828.009 C 631.831 827.464, 633.884 827.088, 636.056 827.173 C 640.469 827.346, 642.198 826.369, 639.971 824.961 C 638.480 824.018, 638.043 824.004, 632.250 824.723 M 969 870.235 C 967.075 871.445, 964.912 873.238, 964.193 874.218 C 962.470 876.568, 960.326 876.478, 959 874 C 957.500 871.197, 952.398 871.337, 949.863 874.250 C 948.786 875.487, 947.433 877.737, 946.855 879.250 C 946.277 880.763, 945.430 882, 944.972 882 C 944.515 882, 943.199 883.913, 942.048 886.250 C 939.955 890.500, 939.955 890.500, 942.227 897.500 C 944.376 904.119, 944.677 904.517, 947.757 904.814 C 951.113 905.137, 951.299 904.935, 952.436 899.750 C 952.893 897.660, 953.628 897, 955.494 897 C 957.690 897, 957.886 897.318, 957.350 900 C 956.835 902.575, 957.049 903, 958.859 903 C 962.453 903, 967.072 897.932, 968.460 892.466 C 969.608 887.948, 969.982 887.500, 972.611 887.500 C 974.648 887.500, 975.791 888.164, 976.487 889.750 C 977.502 892.063, 978.663 892.450, 981.418 891.393 C 982.476 890.987, 983 889.529, 983 886.992 C 983 883.726, 982.519 882.914, 979.550 881.162 C 976.479 879.350, 976.118 878.693, 976.259 875.167 C 976.400 871.619, 974.803 867.972, 973.128 868.017 C 972.782 868.026, 970.925 869.024, 969 870.235 M 968 880.500 C 967.004 881.701, 967.019 882.317, 968.075 883.590 C 969.278 885.040, 969.504 885.031, 970.629 883.493 C 971.860 881.810, 971.476 879, 970.015 879 C 969.592 879, 968.685 879.675, 968 880.500 M 1003.726 903.754 C 1002.858 904.714, 1002.002 907.300, 1001.824 909.500 C 1001.564 912.704, 1001.073 913.561, 999.354 913.806 C 996.266 914.246, 994.189 916.967, 993.461 921.526 C 992.855 925.317, 992.976 925.557, 996.097 926.733 C 997.896 927.411, 999.078 928.255, 998.724 928.609 C 998.370 928.964, 998.795 930.636, 999.669 932.326 C 1000.954 934.811, 1001.041 935.999, 1000.123 938.535 C 999.211 941.057, 999.293 942.281, 1000.542 944.784 C 1001.396 946.496, 1002.291 948.932, 1002.531 950.198 C 1003.702 956.385, 1004.239 957.953, 1005.564 959.053 C 1006.354 959.709, 1007 961.246, 1007 962.469 C 1007 965.165, 1009.786 971, 1011.073 971 C 1011.583 971, 1012 971.627, 1012 972.393 C 1012 974.451, 1014.666 975.107, 1016.085 973.398 C 1016.938 972.369, 1017.634 972.234, 1018.358 972.958 C 1019.081 973.681, 1019.033 974.367, 1018.200 975.200 C 1015.770 977.630, 1017.015 978.278, 1022.750 977.566 C 1029.233 976.761, 1030.877 976.697, 1033.009 977.170 C 1035.093 977.631, 1035.530 972.685, 1033.551 971.042 C 1032.698 970.334, 1031.998 969.023, 1031.996 968.128 C 1031.994 967.232, 1031.150 965.119, 1030.121 963.431 C 1029.092 961.743, 1027.911 959.294, 1027.496 957.988 C 1027.082 956.682, 1025.328 953.563, 1023.598 951.056 C 1019.462 945.061, 1018 941.590, 1018 937.758 C 1018 935.710, 1017.068 933.637, 1015.336 931.828 C 1012.733 929.111, 1012.700 928.919, 1013.914 923.495 C 1015.142 918.005, 1015.123 917.904, 1012.211 914.588 C 1010.592 912.743, 1008.970 909.651, 1008.607 907.717 C 1007.723 903.005, 1005.807 901.449, 1003.726 903.754 M 854 908.732 C 850.699 909.339, 849 910.824, 849 913.103 C 849 917.219, 857.141 916.282, 858.497 912.010 C 859.142 909.979, 858.438 907.890, 857.191 908.136 C 856.811 908.211, 855.375 908.479, 854 908.732 M 1104.392 943.573 C 1103.667 946.463, 1105.131 948.548, 1107.301 947.715 C 1108.744 947.161, 1110.166 942.500, 1109.190 941.524 C 1107.724 940.057, 1104.981 941.229, 1104.392 943.573 M 328.362 972.500 C 327.671 974.300, 328.571 977, 329.862 977 C 330.370 977, 331.045 976.325, 331.362 975.500 C 332.052 973.700, 331.152 971, 329.862 971 C 329.353 971, 328.678 971.675, 328.362 972.500 M 1060.250 978.100 C 1059.563 978.815, 1059 980.210, 1059 981.200 C 1059 982.190, 1058.602 983, 1058.117 983 C 1057.631 983, 1056.998 983.900, 1056.710 985 C 1056.420 986.112, 1055.346 987, 1054.294 987 C 1051.791 987, 1050 988.894, 1050 991.539 C 1050 992.851, 1049.033 994.120, 1047.500 994.818 C 1044.375 996.242, 1044.370 997.060, 1047.471 999.972 C 1049.506 1001.884, 1050.208 1002.072, 1051.452 1001.040 C 1052.435 1000.224, 1054.454 999.999, 1057.231 1000.396 C 1059.579 1000.731, 1064.088 1001.283, 1067.250 1001.623 C 1073.751 1002.321, 1074.130 1003.118, 1071.471 1010.500 C 1070.679 1012.700, 1070.023 1015.201, 1070.015 1016.058 C 1070.007 1016.914, 1068.200 1018.409, 1066 1019.380 C 1061.754 1021.253, 1061.225 1022.112, 1063.273 1023.812 C 1065.320 1025.510, 1084.004 1024.752, 1087 1022.849 C 1090.326 1020.736, 1099.138 1019.195, 1112.250 1018.432 C 1118.163 1018.089, 1123.252 1017.401, 1123.559 1016.904 C 1123.867 1016.407, 1125.180 1016, 1126.477 1016 C 1129.486 1016, 1132 1015.041, 1132 1013.893 C 1132 1012.563, 1120.587 1012.813, 1119.227 1014.173 C 1118.330 1015.070, 1117.449 1015.070, 1115.480 1014.173 C 1114.064 1013.528, 1109.088 1013, 1104.421 1013 C 1099.180 1013, 1094.577 1012.432, 1092.383 1011.515 C 1088.829 1010.031, 1088.829 1010.031, 1095.079 1005.015 C 1099.520 1001.451, 1102.221 999.996, 1104.414 999.985 C 1109.517 999.959, 1110.469 998.808, 1108.512 995.024 C 1107.070 992.235, 1106.441 991.862, 1104.005 992.349 C 1100.329 993.084, 1098.386 991.016, 1099.971 988.055 C 1100.807 986.492, 1101.685 986.134, 1103.540 986.599 C 1104.893 986.939, 1106 986.820, 1106 986.336 C 1106 985.196, 1100.354 982.260, 1096.500 981.397 C 1094.850 981.027, 1092.985 980.321, 1092.356 979.828 C 1091.727 979.334, 1087.902 978.772, 1083.856 978.579 C 1079.810 978.385, 1073.125 977.905, 1069 977.513 C 1063.386 976.979, 1061.186 977.126, 1060.250 978.100 M 1090.250 986.985 C 1084.587 990.445, 1086.810 993.230, 1093.750 991.370 C 1096.278 990.692, 1096.599 989.192, 1094.750 986.691 C 1093.584 985.114, 1093.281 985.134, 1090.250 986.985 M 524.145 989.013 C 523.568 990.670, 522.401 992.293, 521.553 992.618 C 519.780 993.298, 520.448 995, 522.488 995 C 524.785 995, 527 992.020, 527 988.929 C 527 985.130, 525.483 985.175, 524.145 989.013 M 1044.220 987.271 C 1042.898 988.913, 1041.559 995.345, 1042.645 994.836 C 1047.562 992.534, 1049 991.411, 1049 989.875 C 1049 987.469, 1045.567 985.599, 1044.220 987.271 M 858.750 999.724 C 856.705 1000.754, 856 1001.849, 856 1003.996 C 856 1007.298, 854.516 1008.570, 851.169 1008.137 C 848.165 1007.749, 845 1010.629, 845 1013.751 C 845 1015.093, 845.788 1017.547, 846.750 1019.205 C 848.461 1022.152, 848.450 1022.252, 846.250 1023.731 C 842.900 1025.983, 843.063 1033.733, 846.547 1037.874 C 849.575 1041.472, 850.934 1041.146, 854.530 1035.956 C 856.015 1033.815, 858.033 1031.807, 859.015 1031.495 C 859.997 1031.183, 861.101 1029.735, 861.467 1028.276 C 861.833 1026.817, 862.873 1025.082, 863.779 1024.420 C 864.684 1023.758, 865.472 1022.133, 865.530 1020.808 C 865.675 1017.490, 866.769 1016, 869.059 1016 C 871.897 1016, 871.430 1013.694, 868.092 1011.226 C 865.692 1009.452, 865.087 1009.332, 864.624 1010.538 C 864.315 1011.342, 863.200 1012, 862.145 1012 C 860.786 1012, 860.101 1011.141, 859.794 1009.052 C 859.296 1005.655, 860.479 1003, 862.491 1003 C 864.724 1003, 865.095 1001.388, 863.226 999.804 C 861.742 998.545, 861.115 998.534, 858.750 999.724 M 1182 1005.590 C 1182 1007.184, 1186.874 1009.937, 1189.750 1009.967 C 1193.797 1010.008, 1193.926 1008.530, 1190.050 1006.526 C 1187.154 1005.028, 1182 1004.429, 1182 1005.590 M 1052.093 1016.388 C 1050.250 1018.609, 1052.783 1023.294, 1055.441 1022.580 C 1056.573 1022.276, 1058.063 1022.021, 1058.750 1022.014 C 1060.606 1021.993, 1060.313 1016.334, 1058.418 1015.607 C 1055.811 1014.607, 1053.316 1014.915, 1052.093 1016.388 M 1051.657 1038.172 C 1050.596 1038.766, 1047.422 1038.897, 1043.928 1038.492 C 1038.230 1037.830, 1038 1037.892, 1038 1040.073 C 1038 1041.321, 1038.736 1043.156, 1039.636 1044.150 C 1041.153 1045.826, 1041.148 1046.006, 1039.569 1046.612 C 1038.632 1046.971, 1037.356 1046.756, 1036.733 1046.133 C 1033.140 1042.540, 1030.718 1048.543, 1034.042 1052.802 C 1036.160 1055.515, 1043.416 1060, 1045.689 1060 C 1047.593 1060, 1052 1055.121, 1052 1053.014 C 1052 1050.187, 1053.333 1049.854, 1058.019 1051.507 C 1064.539 1053.807, 1066.751 1053.458, 1068.990 1049.776 C 1071.129 1046.259, 1070.215 1043.746, 1067.590 1045.925 C 1066.744 1046.628, 1065.177 1046.873, 1063.975 1046.492 C 1062.095 1045.895, 1062.018 1045.630, 1063.296 1044.159 C 1064.090 1043.247, 1064.535 1041.938, 1064.286 1041.250 C 1063.580 1039.301, 1061.290 1039.781, 1060.710 1042 C 1059.848 1045.297, 1056.065 1044.577, 1055.346 1040.979 C 1054.615 1037.326, 1054.002 1036.860, 1051.657 1038.172 M 1150.250 1047.031 C 1147.005 1048.336, 1147.301 1052.156, 1150.807 1054.227 C 1153.557 1055.851, 1153.674 1055.823, 1156.492 1052.837 C 1159.370 1049.788, 1159.370 1049.788, 1156.935 1047.916 C 1154.218 1045.828, 1153.486 1045.731, 1150.250 1047.031 M 868.432 1090.510 C 866.744 1091.251, 864.787 1092.552, 864.082 1093.401 C 862.728 1095.033, 852.573 1100, 850.591 1100 C 849.948 1100, 847.640 1100.934, 845.461 1102.076 C 843.283 1103.219, 838.350 1105.390, 834.500 1106.902 C 827.106 1109.806, 827.333 1109.446, 828.670 1116.151 C 829.068 1118.148, 828.742 1118.937, 827.349 1119.346 C 823.508 1120.476, 817.141 1120.362, 815.667 1119.138 C 814.413 1118.098, 813.683 1118.161, 811.662 1119.486 C 810.303 1120.376, 808.935 1122.122, 808.623 1123.365 C 808.311 1124.608, 805.793 1128.210, 803.028 1131.371 C 800.263 1134.531, 798 1137.540, 798 1138.058 C 798 1138.576, 796.965 1139, 795.700 1139 C 791.497 1139, 790.695 1141.072, 793.689 1144.198 C 796.366 1146.991, 796.415 1147, 809.437 1146.968 C 819.336 1146.944, 822.970 1146.581, 824.441 1145.468 C 825.509 1144.661, 828.002 1144, 829.981 1144 C 831.960 1144, 836.171 1143.325, 839.339 1142.500 C 846.565 1140.618, 849.036 1140.617, 852.636 1142.494 C 856.186 1144.345, 858.769 1144.347, 862 1142.500 C 863.375 1141.714, 865.497 1141.055, 866.715 1141.035 C 867.933 1141.016, 869.411 1140.100, 870 1139 C 870.626 1137.830, 872.094 1137, 873.535 1137 C 876.371 1137, 876.843 1138.767, 874.250 1139.676 C 873.288 1140.013, 871.150 1141.541, 869.500 1143.071 C 867.850 1144.600, 863.575 1147.377, 860 1149.241 C 856.425 1151.104, 852.547 1153.234, 851.382 1153.972 C 850.218 1154.711, 848.497 1155.021, 847.558 1154.661 C 846.005 1154.065, 845.993 1153.864, 847.426 1152.431 C 849.542 1150.315, 849.472 1145.395, 847.312 1144.566 C 846.289 1144.174, 845.286 1144.525, 844.763 1145.459 C 844.289 1146.307, 843.360 1147.002, 842.700 1147.005 C 842.040 1147.007, 839.999 1148.416, 838.165 1150.134 C 834.292 1153.764, 820.003 1171.504, 819.994 1172.694 C 819.991 1173.137, 817.968 1176.425, 815.500 1180 C 813.032 1183.575, 811.009 1186.993, 811.006 1187.595 C 811.003 1188.197, 810.100 1189.505, 809 1190.500 C 807.900 1191.495, 807 1192.893, 807 1193.605 C 807 1194.318, 806.404 1195.260, 805.675 1195.700 C 804.037 1196.688, 795 1215.527, 795 1217.953 C 795 1218.586, 794.155 1220.768, 793.122 1222.802 C 792.089 1224.836, 790.234 1228.750, 789 1231.500 C 787.766 1234.250, 785.968 1238.075, 785.004 1240 C 784.040 1241.925, 782.934 1244.963, 782.546 1246.750 C 782.158 1248.537, 781.444 1250, 780.959 1250 C 780.474 1250, 779.598 1251.781, 779.011 1253.958 C 778.425 1256.135, 777.570 1258.148, 777.110 1258.432 C 776.650 1258.716, 775.694 1261.098, 774.985 1263.724 C 774.276 1266.351, 773.089 1269.210, 772.348 1270.079 C 771.607 1270.947, 771 1272.349, 771 1273.194 C 771 1274.039, 770.100 1275.874, 769 1277.273 C 767.900 1278.671, 767 1280.106, 767 1280.461 C 767 1281.788, 755.589 1296.474, 751.376 1300.568 C 748.969 1302.908, 747 1305.242, 747 1305.756 C 747 1306.270, 746.100 1307.505, 745 1308.500 C 743.900 1309.495, 743 1310.834, 743 1311.475 C 743 1312.116, 741.696 1314.100, 740.103 1315.885 C 737.524 1318.774, 736.811 1319.055, 733.603 1318.453 C 731.080 1317.980, 730 1317.248, 730 1316.010 C 730 1315.026, 728.781 1313.736, 727.250 1313.099 C 725.731 1312.468, 722.933 1309.522, 721 1306.518 C 717.961 1301.797, 717.072 1301.075, 714.250 1301.040 C 712.462 1301.018, 710.663 1300.976, 710.250 1300.947 C 709.837 1300.918, 709.336 1301.688, 709.136 1302.658 C 708.609 1305.214, 711.794 1310.585, 714.594 1311.861 C 715.917 1312.464, 717 1313.642, 717 1314.479 C 717 1315.558, 718.091 1316.020, 720.750 1316.070 C 722.813 1316.109, 725.400 1316.527, 726.500 1317 C 728.115 1317.694, 727.794 1317.873, 724.832 1317.930 C 720.134 1318.020, 718 1318.856, 718 1320.607 C 718 1321.652, 716.406 1322, 711.617 1322 C 704.322 1322, 704.038 1321.639, 704.014 1312.332 C 704.006 1309.489, 703.728 1306.454, 703.395 1305.588 C 702.269 1302.653, 701 1305.092, 701 1310.191 C 701 1313.664, 700.310 1316.381, 698.811 1318.805 C 696.746 1322.147, 696.620 1323.531, 696.575 1343.423 C 696.520 1367.488, 698.407 1406.844, 700.007 1415 C 702.218 1426.274, 703.125 1450.034, 703.444 1505 C 703.766 1560.408, 705.590 1605.799, 708.106 1621 C 708.698 1624.575, 709.572 1630.875, 710.049 1635 C 711.037 1643.543, 710.465 1671.947, 709.282 1673.095 C 708.250 1674.097, 681.248 1676.989, 663 1678.052 C 645.993 1679.042, 640.053 1680.308, 627.090 1685.701 C 625.215 1686.482, 621.840 1687.515, 619.590 1687.998 C 617.341 1688.481, 609.650 1690.968, 602.500 1693.524 C 583.533 1700.304, 557.011 1703.822, 523.890 1703.951 C 516.955 1703.978, 504.580 1704.644, 496.390 1705.431 C 488.201 1706.218, 472.500 1707.164, 461.500 1707.534 C 434.387 1708.446, 425.739 1709.686, 410 1714.919 C 403.250 1717.164, 402.569 1717.449, 389.695 1723.427 C 385.403 1725.420, 381.480 1726.796, 380.977 1726.486 C 380.472 1726.174, 380.900 1724.042, 381.936 1721.711 C 387.160 1709.961, 387.076 1710.509, 386.780 1690.508 C 386.500 1671.516, 386.500 1671.516, 382.637 1669.017 C 378.773 1666.518, 378.773 1666.518, 379.396 1660.442 C 379.973 1654.806, 379.831 1654.190, 377.440 1651.943 C 375.325 1649.957, 373.569 1649.448, 367.681 1649.116 C 357.957 1648.567, 329.782 1649.016, 328.613 1649.739 C 328.095 1650.059, 330.335 1651.036, 333.590 1651.911 C 339.426 1653.478, 346 1656.771, 346 1658.127 C 346 1658.509, 344.650 1659.958, 343 1661.347 C 338.979 1664.730, 337.860 1667.933, 339.187 1672.259 C 340.127 1675.320, 339.920 1676.282, 337.391 1680.609 C 335.818 1683.299, 333.287 1686.553, 331.766 1687.839 C 330.245 1689.125, 329 1691.056, 329 1692.129 C 329 1693.202, 328.061 1695.921, 326.913 1698.171 C 325.765 1700.422, 324.233 1704.116, 323.510 1706.381 C 322.786 1708.647, 320.563 1714.325, 318.568 1719 C 313.302 1731.345, 308.480 1745.565, 307.092 1752.847 C 306.007 1758.534, 306.059 1759.323, 307.587 1760.440 C 308.526 1761.126, 309.399 1763.220, 309.529 1765.094 C 309.871 1770.040, 312.796 1788.894, 315.051 1800.698 C 317.539 1813.716, 317.505 1818.090, 314.877 1823.242 C 310.582 1831.660, 309.035 1837.633, 310.289 1840.954 C 311.438 1844, 311.438 1844, 660.807 1844 C 1010.176 1844, 1010.176 1844, 1009.581 1840.250 C 1008.553 1833.768, 1004.164 1786.027, 1003.491 1774 C 1003.136 1767.675, 1002.424 1760.565, 1001.908 1758.200 C 1001.392 1755.835, 1000.529 1746.218, 999.990 1736.828 C 999.452 1727.437, 998.569 1718.112, 998.028 1716.105 C 997.488 1714.098, 996.597 1705.490, 996.049 1696.978 C 995.500 1688.465, 994.605 1679.025, 994.060 1676 C 993.515 1672.975, 992.571 1663.081, 991.963 1654.013 C 991.356 1644.945, 990.400 1635.270, 989.839 1632.513 C 989.278 1629.756, 988.453 1614.450, 988.006 1598.500 C 987.496 1580.337, 986.736 1568.192, 985.971 1566 C 984.917 1562.977, 977.568 1546.884, 974.907 1541.768 C 972.761 1537.643, 970.001 1529.294, 970.001 1526.924 C 970 1525.508, 971.055 1523.357, 972.345 1522.146 C 974.749 1519.887, 977.610 1508.399, 977.122 1502.963 C 976.996 1501.568, 977.331 1498.482, 977.865 1496.104 C 978.544 1493.083, 978.427 1488.274, 977.475 1480.124 C 975.146 1460.187, 974.109 1455.431, 969.888 1445.312 C 967.637 1439.916, 964.755 1432.575, 963.484 1429 C 958.949 1416.249, 951.897 1400.974, 948.394 1396.317 C 947.077 1394.566, 946 1392.741, 946 1392.261 C 946 1391.781, 944.861 1389.844, 943.468 1387.957 C 942.076 1386.070, 940.319 1382.445, 939.563 1379.901 C 938.808 1377.358, 937.720 1374.427, 937.144 1373.389 C 929.289 1359.202, 919.670 1332.357, 914.451 1310.052 C 912.119 1300.087, 911.824 1297.023, 912.178 1286.405 C 912.435 1278.675, 913.042 1273.654, 913.834 1272.700 C 916.629 1269.332, 917.006 1264.968, 914.997 1259.252 C 913.628 1255.356, 913.346 1253.222, 914.032 1251.941 C 914.564 1250.946, 915 1249.250, 915 1248.173 C 915 1246.211, 916.802 1245, 919.722 1245 C 921.202 1245, 923.805 1243.916, 935.600 1238.390 C 938.405 1237.075, 941.256 1236, 941.935 1236 C 942.615 1236, 945.559 1238.565, 948.477 1241.701 C 953.783 1247.402, 953.783 1247.402, 957.802 1245.589 C 962.030 1243.683, 965.037 1239.851, 973.030 1226.181 C 977.310 1218.863, 977.310 1218.863, 976.650 1202.181 C 976.288 1193.007, 975.341 1182.462, 974.548 1178.750 C 973.754 1175.037, 972.825 1168.062, 972.484 1163.250 C 971.718 1152.450, 969.067 1143.074, 963.653 1132.018 C 958.230 1120.944, 947.901 1108.128, 944.321 1108.032 C 943.673 1108.014, 942.548 1107.424, 941.821 1106.719 C 938.375 1103.378, 932.551 1101.011, 926.238 1100.387 C 922.532 1100.020, 917.346 1098.883, 914.713 1097.860 C 912.080 1096.837, 908.869 1096, 907.578 1096 C 906.286 1096, 903.040 1095.341, 900.365 1094.535 C 891.305 1091.805, 878.162 1089, 874.823 1089.082 C 872.995 1089.126, 870.119 1089.769, 868.432 1090.510 M 315.104 1095.900 C 312.977 1097.269, 314.578 1100.199, 317.246 1099.820 C 318.721 1099.611, 319.500 1098.813, 319.500 1097.514 C 319.500 1095.322, 317.274 1094.505, 315.104 1095.900 M 296.586 1104.637 C 295.557 1107.317, 297.533 1108.534, 300.625 1107.125 C 303.434 1105.845, 303.021 1104.683, 299.368 1103.583 C 297.878 1103.133, 297.041 1103.451, 296.586 1104.637 M 791 1108.732 C 789.625 1108.985, 788.050 1109.521, 787.500 1109.924 C 786.950 1110.326, 784.375 1111.440, 781.778 1112.400 C 775.140 1114.852, 768.776 1123, 773.499 1123 C 775.238 1123, 784.487 1118.205, 787.001 1116 C 787.942 1115.175, 790.127 1113.380, 791.856 1112.011 C 794.805 1109.677, 795.947 1107.828, 794.250 1108.136 C 793.837 1108.211, 792.375 1108.479, 791 1108.732 M 1128.151 1112.318 C 1127.344 1113.290, 1127.458 1114.209, 1128.585 1115.818 C 1130.540 1118.610, 1133.601 1118.615, 1135.091 1115.829 C 1136.054 1114.030, 1135.942 1113.431, 1134.435 1112.329 C 1132.120 1110.636, 1129.551 1110.631, 1128.151 1112.318 M 899.500 1113.005 C 898.400 1113.489, 896.375 1115.539, 895 1117.562 C 891.311 1122.991, 886.369 1127.909, 883.514 1128.995 C 882.131 1129.520, 881 1130.605, 881 1131.406 C 881 1132.206, 879.987 1133.005, 878.750 1133.180 C 876.187 1133.544, 875.713 1135.321, 878.058 1135.773 C 878.916 1135.938, 881.701 1134.481, 884.248 1132.536 C 886.796 1130.591, 889.566 1129, 890.405 1129 C 891.243 1129, 892.380 1128.159, 892.929 1127.132 C 893.632 1125.819, 894.678 1125.407, 896.446 1125.745 C 898.463 1126.131, 899.162 1125.704, 899.962 1123.599 C 900.512 1122.154, 901.931 1119.660, 903.115 1118.058 C 906.474 1113.514, 904.529 1110.796, 899.500 1113.005 M 949.864 1134.003 C 948.014 1135.634, 946.110 1136.975, 945.633 1136.984 C 945.157 1136.993, 945.032 1138.013, 945.356 1139.250 C 946.098 1142.080, 944.030 1148, 942.299 1148 C 940.826 1148, 940.477 1153.559, 941.895 1154.435 C 942.919 1155.068, 944 1152.747, 944 1149.918 C 944 1147.605, 944.954 1147.536, 949.671 1149.507 C 953.753 1151.213, 955.133 1150.578, 957.566 1145.872 C 959.606 1141.928, 959.347 1140.066, 956.096 1135.269 C 953.228 1131.038, 953.228 1131.038, 949.864 1134.003 M 745.023 1139.440 C 744.488 1140.848, 743.668 1142, 743.202 1142 C 741.763 1142, 737.115 1149.871, 736.445 1153.444 C 736.095 1155.307, 734.763 1157.814, 733.484 1159.015 C 731.661 1160.727, 731.274 1161.911, 731.692 1164.487 C 732.095 1166.976, 731.712 1168.288, 730.113 1169.887 C 727.117 1172.883, 724 1172.686, 724 1169.500 C 724 1167.944, 723.433 1167, 722.500 1167 C 721.675 1167, 721 1166.550, 721 1166 C 721 1165.450, 721.675 1165, 722.500 1165 C 723.325 1165, 724 1165.450, 724 1166 C 724 1167.880, 726.063 1167.003, 726.940 1164.750 C 728.105 1161.759, 725.826 1160, 720.784 1160 C 717.589 1160, 716.788 1160.427, 715.975 1162.565 C 714.353 1166.832, 714.775 1167.688, 720.742 1172.223 C 726.467 1176.574, 726.483 1176.602, 726.341 1181.675 C 726.262 1184.473, 725.729 1187.638, 725.156 1188.708 C 724.583 1189.779, 723.798 1193.045, 723.410 1195.968 C 723.022 1198.890, 721.196 1204.176, 719.352 1207.714 C 717.509 1211.251, 715.997 1214.675, 715.994 1215.323 C 715.990 1215.970, 715.318 1217.783, 714.500 1219.352 C 712.701 1222.801, 713.509 1227, 715.972 1227 C 717.556 1227, 719.804 1224.264, 724.189 1217 C 726.346 1213.427, 739.581 1183.174, 740.814 1179 C 742.620 1172.882, 743.517 1165.628, 742.977 1161.500 C 742.602 1158.634, 743.240 1155.295, 745.227 1149.721 C 746.752 1145.443, 748 1141.082, 748 1140.030 C 748 1137.005, 746.093 1136.626, 745.023 1139.440 M 1047.500 1189 C 1042.627 1189.539, 1043.660 1189.674, 1053 1189.717 C 1061.514 1189.756, 1063.461 1189.555, 1060.500 1188.943 C 1056.131 1188.039, 1056.189 1188.039, 1047.500 1189 M 364 1223.378 C 364 1224.709, 363.044 1226.391, 361.829 1227.197 C 359.377 1228.825, 360.068 1231, 363.036 1231 C 365.713 1231, 368.373 1226.624, 367.591 1223.507 C 366.781 1220.279, 364 1220.179, 364 1223.378 M 924.552 1248.916 C 923.895 1249.979, 925.485 1254.622, 926.685 1255.145 C 927.932 1255.688, 931.989 1261.752, 932.081 1263.210 C 932.126 1263.919, 933.657 1267.200, 935.483 1270.500 C 941.497 1281.368, 945.029 1289.247, 945.266 1292.327 C 945.457 1294.804, 945.053 1295.470, 943.064 1295.960 C 940.052 1296.702, 938.605 1301.078, 940.510 1303.683 C 941.764 1305.398, 941.908 1305.394, 943.914 1303.578 C 947.345 1300.473, 950.480 1302.638, 952.016 1309.175 C 952.705 1312.104, 953.870 1315.690, 954.606 1317.145 C 955.341 1318.600, 956.243 1321.750, 956.610 1324.145 C 956.978 1326.540, 957.838 1329.625, 958.522 1331 C 959.206 1332.375, 960.082 1335.834, 960.468 1338.686 C 961.812 1348.614, 965.601 1365.814, 966.748 1367.196 C 967.382 1367.961, 968.208 1371.717, 968.583 1375.543 C 968.957 1379.370, 969.610 1383.153, 970.034 1383.951 C 971.409 1386.540, 973.570 1378.981, 973.451 1372 C 973.325 1364.607, 975.570 1360.011, 979.318 1359.985 C 982.976 1359.959, 984.026 1358.579, 984.689 1352.925 C 985.194 1348.621, 985.994 1346.829, 988.563 1344.250 C 990.343 1342.463, 992.520 1341, 993.400 1341 C 994.440 1341, 995 1340.125, 995 1338.500 C 995 1335.632, 994.182 1335.395, 991.441 1337.468 C 990.274 1338.351, 987.215 1338.949, 983.769 1338.968 C 978.392 1338.998, 977.997 1338.836, 977.373 1336.349 C 977.003 1334.875, 977.216 1332.883, 977.854 1331.863 C 979.454 1329.299, 979.283 1325.479, 977.500 1324 C 976.675 1323.315, 976 1321.662, 976 1320.326 C 976 1318.989, 975.154 1316.232, 974.121 1314.198 C 973.087 1312.164, 971.400 1308.731, 970.371 1306.570 C 968.559 1302.763, 962.544 1294.553, 955.786 1286.663 C 953.979 1284.553, 951.282 1281.027, 949.794 1278.828 C 947.264 1275.091, 937.313 1262.355, 934.301 1259 C 931.343 1255.705, 927 1249.675, 927 1248.862 C 927 1247.719, 925.269 1247.756, 924.552 1248.916 M 520.545 1291.859 C 519.465 1295.261, 520.916 1296.792, 525.571 1297.162 C 529.598 1297.482, 530 1297.311, 530 1295.271 C 530 1293.637, 529.015 1292.615, 526.378 1291.513 C 521.750 1289.580, 521.259 1289.609, 520.545 1291.859 M 369.207 1343 C 369.186 1349.743, 369.369 1350.847, 370.095 1348.341 C 370.639 1346.464, 370.649 1343.015, 370.122 1339.841 C 369.251 1334.606, 369.233 1334.668, 369.207 1343 M 318.806 1343.106 C 315.736 1346.551, 316.040 1349.420, 319.368 1348.417 C 322.401 1347.504, 323.052 1346.691, 323.290 1343.519 C 323.579 1339.665, 322.002 1339.520, 318.806 1343.106 M 503.005 1384.976 C 501.722 1385.787, 501.793 1386.135, 503.505 1387.429 C 506.060 1389.360, 506.649 1389.357, 507.396 1387.410 C 508.561 1384.375, 506.107 1383.015, 503.005 1384.976 M 516.786 1387.340 C 516.209 1390.357, 516.628 1391, 519.167 1391 C 521.459 1391, 521.449 1390.142, 519.120 1387.113 C 517.285 1384.727, 517.285 1384.727, 516.786 1387.340 M 523.309 1391.636 C 522.642 1393.375, 524.119 1396.500, 525.609 1396.500 C 526.099 1396.500, 526.641 1395.037, 526.813 1393.250 C 527.049 1390.811, 526.729 1390, 525.532 1390 C 524.655 1390, 523.655 1390.736, 523.309 1391.636 M 517 1398.504 C 517 1399.881, 517.900 1402.687, 519.001 1404.740 C 520.368 1407.292, 520.815 1409.471, 520.411 1411.622 C 519.770 1415.037, 521.395 1417.005, 523.290 1415.110 C 523.903 1414.497, 525.412 1411.214, 526.643 1407.814 C 528.730 1402.051, 528.767 1401.547, 527.190 1400.349 C 526.261 1399.642, 524.768 1399.049, 523.872 1399.032 C 522.977 1399.014, 521.685 1398.325, 521 1397.500 C 519.068 1395.172, 517 1395.691, 517 1398.504 M 537.885 1398.250 C 537.234 1399.487, 536.205 1400.831, 535.600 1401.235 C 534.950 1401.669, 535.318 1401.967, 536.500 1401.962 C 539.191 1401.953, 543.466 1398.563, 542.585 1397.137 C 541.444 1395.291, 539.159 1395.832, 537.885 1398.250 M 360.165 1440.250 C 357.802 1446.278, 357.549 1457.445, 359.545 1467.598 C 360.562 1472.769, 361.686 1477, 362.043 1477 C 362.726 1477, 364 1457.099, 364 1446.425 C 364 1436.808, 362.476 1434.354, 360.165 1440.250 M 364.595 1501.735 C 363.550 1512.341, 363.734 1543.993, 364.934 1560 C 365.532 1567.975, 366.442 1582.708, 366.956 1592.741 C 367.493 1603.211, 368.539 1613.222, 369.411 1616.241 C 370.246 1619.133, 371.527 1624.200, 372.256 1627.500 C 373.330 1632.354, 373.992 1633.559, 375.724 1633.811 C 379.622 1634.376, 380.184 1631.319, 379.047 1615.735 C 378.476 1607.906, 377.078 1595.875, 375.941 1589 C 374.804 1582.125, 373.208 1572.225, 372.395 1567 C 371.582 1561.775, 370.271 1553.675, 369.481 1549 C 368.691 1544.325, 367.552 1530.379, 366.949 1518.010 C 366.346 1505.640, 365.721 1495.388, 365.559 1495.226 C 365.397 1495.064, 364.963 1497.993, 364.595 1501.735 M 610.713 1595.929 C 607.646 1598.914, 607.859 1602, 611.132 1602 C 613.102 1602, 615 1598.533, 615 1594.935 C 615 1592.416, 614.109 1592.623, 610.713 1595.929 M 633.251 1596.202 C 632.660 1596.916, 632.025 1598.815, 631.838 1600.423 C 631.418 1604.053, 629.744 1604.704, 627.339 1602.170 C 623.853 1598.497, 619.196 1602.595, 621.078 1607.681 C 621.706 1609.381, 623.028 1609.923, 627.930 1610.492 C 631.271 1610.880, 634.263 1611.616, 634.579 1612.128 C 634.896 1612.640, 633.770 1614.637, 632.077 1616.565 C 627.922 1621.297, 627.864 1623.351, 631.958 1620.794 C 633.542 1619.805, 634.243 1619.910, 635.866 1621.379 C 636.955 1622.364, 639.613 1623.407, 641.775 1623.697 C 645.286 1624.168, 645.933 1623.903, 647.852 1621.207 C 649.075 1619.491, 650 1616.669, 650 1614.658 C 650 1611.182, 649.934 1611.126, 645.919 1611.182 C 643.674 1611.213, 641.334 1610.734, 640.719 1610.119 C 640.104 1609.504, 638.115 1609, 636.300 1609 C 633.698 1609, 633 1608.589, 633 1607.055 C 633 1605.918, 634.144 1604.561, 635.750 1603.791 C 637.972 1602.726, 638.500 1601.804, 638.500 1598.987 C 638.500 1596.213, 638.073 1595.439, 636.412 1595.202 C 635.264 1595.038, 633.842 1595.488, 633.251 1596.202 M 380.656 1646.455 C 379.549 1649.340, 379.925 1652, 381.441 1652 C 383.728 1652, 384.202 1650.264, 382.700 1647.397 C 381.521 1645.147, 381.212 1645.004, 380.656 1646.455 M 388.708 1660.319 C 387.970 1662.241, 389.082 1667.068, 390.114 1666.429 C 391.270 1665.715, 391.263 1660.280, 390.105 1659.565 C 389.612 1659.260, 388.984 1659.600, 388.708 1660.319 M 339.572 1742.610 C 336.664 1745.193, 336.640 1745.303, 336.124 1758.855 C 335.273 1781.209, 335.396 1782.324, 340.105 1794.750 C 341.077 1797.317, 345.064 1797.833, 346.894 1795.628 C 347.699 1794.658, 347.955 1786.370, 347.767 1767.378 C 347.500 1740.500, 347.500 1740.500, 345 1740.255 C 343.464 1740.104, 341.371 1741.013, 339.572 1742.610 M 357.583 1744.866 C 356.783 1746.161, 354.808 1767.881, 355.403 1768.843 C 355.637 1769.222, 355.192 1771.985, 354.414 1774.984 C 352.484 1782.426, 352.486 1803.821, 354.417 1806.579 C 355.197 1807.692, 356.149 1810.279, 356.534 1812.328 C 356.918 1814.377, 358.051 1816.492, 359.051 1817.027 C 361.216 1818.186, 363.040 1818.312, 361.256 1817.180 C 360.411 1816.643, 359.727 1811.118, 359.122 1799.945 C 358.605 1790.403, 357.681 1782.316, 356.922 1780.678 C 355.823 1778.308, 355.840 1777.717, 357.029 1776.982 C 357.808 1776.501, 358.562 1774.395, 358.704 1772.303 C 358.847 1770.212, 359.460 1764.675, 360.066 1760 C 360.673 1755.325, 361.175 1750.435, 361.183 1749.134 C 361.200 1746.354, 358.581 1743.250, 357.583 1744.866 M 296.601 1773.028 C 295.647 1775.804, 295.608 1777.507, 296.390 1782.419 C 297.371 1788.578, 298.969 1786.769, 298.969 1779.500 C 298.969 1774.144, 297.551 1770.267, 296.601 1773.028 M 407.250 1792.775 C 404.274 1793.257, 404.381 1794.807, 407.443 1795.575 C 409.955 1796.206, 412 1795.520, 412 1794.048 C 412 1792.895, 409.933 1792.341, 407.250 1792.775 M 1153 1837.131 C 1136.016 1837.653, 1131.429 1838.120, 1126.255 1839.851 C 1122.821 1841.001, 1119.333 1841.681, 1118.505 1841.364 C 1117.550 1840.997, 1117 1841.373, 1117 1842.393 C 1117 1843.858, 1125.615 1844, 1214.500 1844 C 1312 1844, 1312 1844, 1312 1840.035 C 1312 1836.071, 1312 1836.071, 1242.750 1836.285 C 1204.662 1836.403, 1164.275 1836.784, 1153 1837.131" stroke="none" fill="black" fill-rule="evenodd"/>
</svg>