<?xml version="1.0" encoding="UTF-8" standalone="no"?>
<svg width="328" height="461" viewBox="0 0 328 461" xmlns="http://www.w3.org/2000/svg">
  <line x1="177" y1="272" x2="177" y2="215" stroke="black" stroke-width="1.5" />
  <line x1="252" y1="457" x2="327" y2="457" stroke="black" stroke-width="1.5" />
  <line x1="174" y1="299" x2="174" y2="340" stroke="black" stroke-width="1.5" />
  <line x1="93" y1="321" x2="95" y2="300" stroke="black" stroke-width="1.5" />
  <line x1="245" y1="388" x2="249" y2="434" stroke="black" stroke-width="1.5" />
  <line x1="175" y1="374" x2="175" y2="352" stroke="black" stroke-width="1.5" />
  <line x1="176" y1="400" x2="176" y2="365" stroke="black" stroke-width="1.5" />
  <line x1="96" y1="299" x2="99" y2="275" stroke="black" stroke-width="1.5" />
  <line x1="109" y1="66" x2="130" y2="112" stroke="black" stroke-width="1.5" />
  <line x1="230" y1="337" x2="240" y2="360" stroke="black" stroke-width="1.5" />
  <line x1="223" y1="101" x2="227" y2="144" stroke="black" stroke-width="1.5" />
  <line x1="91" y1="360" x2="97" y2="430" stroke="black" stroke-width="1.5" />
  <line x1="127" y1="84" x2="135" y2="105" stroke="black" stroke-width="1.5" />
  <line x1="166" y1="162" x2="174" y2="185" stroke="black" stroke-width="1.5" />
  <line x1="219" y1="310" x2="234" y2="347" stroke="black" stroke-width="1.5" />
  <path d="M 84,435 L 83,449 L 87,449 L 89,455 L 92,455 L 92,448 L 90,455 L 85,448 L 84,442 L 85,435 L 86,446 L 86,435 Z" fill="none" stroke="black" stroke-width="1" opacity="0.5" />
  <path d="M 70,409 L 72,412 L 80,413 L 78,414 L 81,416 L 82,414 L 88,414 L 80,413 L 82,411 L 93,412 L 77,412 L 71,411 Z" fill="none" stroke="black" stroke-width="1" opacity="0.5" />
  <path d="M 157,396 L 160,399 L 157,396 L 152,398 L 152,401 L 155,398 L 155,400 L 153,403 L 156,404 L 155,398 Z" fill="none" stroke="black" stroke-width="1" opacity="0.5" />
  <path d="M 125,345 L 126,348 L 125,346 L 128,346 L 128,348 L 129,351 L 131,354 L 133,351 L 135,351 L 134,347 L 131,347 L 127,345 Z" fill="none" stroke="black" stroke-width="1" opacity="0.5" />
  <path d="M 205,297 L 221,313 L 240,358 L 252,460 L 327,457 L 251,456 L 240,358 L 220,311 Z" fill="none" stroke="black" stroke-width="1" opacity="0.5" />
  <path d="M 224,277 L 215,285 L 199,286 L 196,283 L 197,279 L 178,308 L 177,298 L 178,309 L 186,293 L 195,282 L 200,287 L 199,289 L 202,286 L 215,285 Z" fill="none" stroke="black" stroke-width="1" opacity="0.5" />
  <path d="M 208,277 L 217,272 L 235,276 L 243,288 L 244,304 L 238,311 L 237,309 L 222,311 L 241,310 L 244,298 L 240,280 L 234,275 L 221,272 Z" fill="none" stroke="black" stroke-width="1" opacity="0.5" />
  <path d="M 79,269 L 80,271 L 83,273 L 79,269 L 74,271 L 74,277 L 75,280 L 77,281 L 74,278 L 78,278 L 80,277 L 80,273 L 77,271 Z" fill="none" stroke="black" stroke-width="1" opacity="0.5" />
  <path d="M 267,262 L 259,263 L 257,262 L 262,256 L 262,254 L 259,259 L 256,262 L 252,263 L 248,268 L 249,266 L 255,262 L 257,262 L 259,264 L 262,264 Z" fill="none" stroke="black" stroke-width="1" opacity="0.5" />
  <path d="M 215,249 L 211,252 L 211,259 L 213,259 L 216,256 L 216,254 L 212,259 L 211,253 L 213,251 L 217,252 L 213,251 Z" fill="none" stroke="black" stroke-width="1" opacity="0.5" />
  <path d="M 134,246 L 135,248 L 132,248 L 131,245 L 127,247 L 127,249 L 128,251 L 130,252 L 126,251 L 126,253 L 129,253 L 135,249 Z" fill="none" stroke="black" stroke-width="1" opacity="0.5" />
  <path d="M 251,242 L 245,242 L 244,264 L 245,269 L 244,264 L 246,242 L 250,242 L 255,246 L 257,246 L 260,250 L 260,253 L 259,247 Z" fill="none" stroke="black" stroke-width="1" opacity="0.5" />
  <path d="M 168,177 L 176,418 L 96,429 L 91,358 L 96,430 L 177,418 L 179,330 L 208,288 L 175,330 L 175,309 L 197,297 L 174,308 Z" fill="none" stroke="black" stroke-width="1" opacity="0.5" />
  <path d="M 126,161 L 124,161 L 122,162 L 121,165 L 123,166 L 121,168 L 127,165 L 121,164 L 125,161 L 127,163 Z" fill="none" stroke="black" stroke-width="1" opacity="0.5" />
  <path d="M 148,147 L 153,151 L 159,158 L 164,162 L 167,163 L 170,167 L 168,163 L 165,162 Z" fill="none" stroke="black" stroke-width="1" opacity="0.5" />
  <path d="M 229,139 L 235,145 L 248,151 L 267,171 L 266,168 L 249,151 L 240,147 Z" fill="none" stroke="black" stroke-width="1" opacity="0.5" />
  <path d="M 224,145 L 214,139 L 207,138 L 207,142 L 196,149 L 182,165 L 197,149 L 207,142 L 206,140 L 208,138 L 221,143 L 225,149 Z" fill="none" stroke="black" stroke-width="1" opacity="0.5" />
  <path d="M 136,126 L 126,152 L 124,154 L 109,156 L 109,160 L 118,174 L 109,157 L 115,154 L 126,153 Z" fill="none" stroke="black" stroke-width="1" opacity="0.5" />
  <path d="M 172,129 L 169,129 L 157,120 L 152,119 L 146,123 L 146,134 L 148,139 L 146,142 L 149,138 L 152,141 L 146,134 L 146,124 L 150,120 L 154,119 L 168,129 Z" fill="none" stroke="black" stroke-width="1" opacity="0.5" />
  <path d="M 124,100 L 123,105 L 125,107 L 125,111 L 131,112 L 135,115 L 135,122 L 137,124 L 137,122 L 135,121 L 136,115 L 131,112 L 127,112 L 125,110 L 126,107 L 128,108 L 123,104 L 125,102 Z" fill="none" stroke="black" stroke-width="1" opacity="0.5" />
  <path d="M 111,77 L 111,79 L 113,80 L 115,79 L 116,81 L 117,78 L 111,78 L 114,76 L 118,76 L 113,76 Z" fill="none" stroke="black" stroke-width="1" opacity="0.5" />
  <path d="M 136,59 L 118,66 L 121,70 L 119,97 L 128,98 L 131,95 L 127,86 L 128,79 L 126,85 L 131,94 L 127,98 L 118,95 L 121,78 L 119,67 Z" fill="none" stroke="black" stroke-width="1" opacity="0.5" />
  <path d="M 160,58 L 163,66 L 169,68 L 172,67 L 177,62 L 183,61 L 187,66 L 187,69 L 187,65 L 185,61 L 178,61 L 169,68 L 165,67 L 162,64 Z" fill="none" stroke="black" stroke-width="1" opacity="0.5" />
  <path d="M 154,11 L 115,39 L 131,41 L 115,39 L 164,12 L 206,38 L 224,71 L 228,137 L 196,116 L 184,87 L 204,121 L 170,173 L 145,148 L 141,121 L 139,138 L 168,175 L 204,121 L 227,144 L 224,71 L 207,38 Z" fill="none" stroke="black" stroke-width="1" opacity="0.5" />
</svg>
