<svg xmlns="http://www.w3.org/2000/svg" width="56" height="64" viewBox="0 0 56 64" version="1.1">
	<path d="M 40.405 25.500 C 38.922 26.875, 36.900 28, 35.913 28 C 31.661 28, 32.606 34.318, 37.092 35.882 C 40.757 37.160, 40.928 40.207, 37.500 43.187 C 33.266 46.868, 34.915 52.075, 39.750 50.292 C 42.087 49.429, 42.706 48.397, 44.455 42.450 C 45.680 38.283, 46.563 37.102, 49.504 35.700 C 51.464 34.765, 53.728 34, 54.534 34 C 55.416 34, 56 33.041, 56 31.595 C 56 29.367, 55.707 29.230, 52 29.727 C 48.283 30.225, 48 30.091, 48 27.832 C 48 25.196, 46.342 23, 44.352 23 C 43.665 23, 41.889 24.125, 40.405 25.500 M 19.615 27.139 C 18.272 29.056, 18.292 29.520, 19.808 31.608 C 22.111 34.778, 22.799 34.586, 23.554 30.565 C 24.583 25.081, 22.391 23.175, 19.615 27.139" stroke="none" fill="black" fill-rule="evenodd"/>
</svg>