<svg xmlns="http://www.w3.org/2000/svg" width="56" height="64" viewBox="0 0 56 64" version="1.1">
	<path d="M 43 25.034 C 41.702 25.903, 41.762 26.238, 43.446 27.523 C 45.665 29.215, 47.610 28.033, 46.664 25.567 C 45.969 23.756, 45.099 23.630, 43 25.034 M 20.507 27.977 C 19.778 30.274, 20.691 32.309, 22.069 31.457 C 23.273 30.713, 23.275 27.288, 22.072 26.544 C 21.562 26.229, 20.858 26.873, 20.507 27.977 M 36 29.802 C 36 30.371, 35.729 31.542, 35.398 32.404 C 34.986 33.478, 35.625 34.287, 37.424 34.971 C 38.869 35.520, 40.313 36.653, 40.633 37.487 C 41.594 39.990, 40.133 43.823, 37.956 44.514 C 36.410 45.005, 36.078 45.686, 36.582 47.331 C 36.949 48.524, 37.430 49.700, 37.652 49.944 C 37.874 50.189, 38.977 49.467, 40.103 48.341 C 41.229 47.215, 42.401 44.428, 42.707 42.147 C 43.158 38.788, 43.917 37.597, 46.705 35.873 C 50.688 33.411, 50.086 32.164, 44.330 30.958 C 42.224 30.516, 39.487 29.843, 38.250 29.461 C 36.919 29.050, 36 29.189, 36 29.802" stroke="none" fill="black" fill-rule="evenodd"/>
</svg>